<svg viewBox="0 0 32 32" fill="none" xmlns="http://www.w3.org/2000/svg" id="Bear-Flat--Streamline-Fluent-Emoji" height="32" width="32">
  <desc>
    Bear Flat Streamline Emoji: https://streamlinehq.com
  </desc>
  <path d="M12 9.5c0 2.4853 -2.01472 4.5 -4.5 4.5S3 11.9853 3 9.5C3 7.01472 5.01472 5 7.5 5S12 7.01472 12 9.5Z" fill="#8c5543" stroke-width="1"></path>
  <path d="M29 9.5c0 2.4853 -2.0147 4.5 -4.5 4.5S20 11.9853 20 9.5C20 7.01472 22.0147 5 24.5 5S29 7.01472 29 9.5Z" fill="#8c5543" stroke-width="1"></path>
  <path d="M30.0019 20.0707s0 -0.01 -0.0007 -0.0269c-0.0018 -0.5413 -0.0531 -1.0706 -0.1493 -1.585 -0.3088 -2.0713 -1.2556 -5.7556 -4.1625 -8.7375 -4.1725 -4.28062 -9.6881 -4 -9.6881 -4s-5.5163 -0.28062 -9.6888 4c-2.90625 2.9819 -3.85375 6.6662 -4.1625 8.7375 -0.09625 0.5144 -0.1475 1.0444 -0.14938 1.5862 0 0.0163 -0.00062 0.025 -0.00062 0.025 0 3.4338 1.98813 6.4025 4.87563 7.8194 0 0 3.12497 1.8313 9.12497 1.8313s9.125 -1.8313 9.125 -1.8313c2.8882 -1.4162 4.8763 -4.385 4.8763 -7.8187Z" fill="#a56953" stroke-width="1"></path>
  <path d="M6.3125 9.7213c0.88537 -0.90831 1.83124 -1.61125 2.77207 -2.15508C8.65325 7.21237 8.10143 7 7.5 7 6.11929 7 5 8.11929 5 9.5c0 0.47648 0.1333 0.9218 0.36464 1.3008 0.2902 -0.3671 0.60543 -0.7282 0.94786 -1.0795Z" fill="#f3ad61" stroke-width="1"></path>
  <path d="M25.6894 9.7213c0.342 0.3509 0.6569 0.7115 0.9469 1.078C26.867 10.4207 27 9.97587 27 9.5 27 8.11929 25.8807 7 24.5 7c-0.6011 0 -1.1526 0.21211 -1.5838 0.56556 0.9412 0.54392 1.8874 1.24706 2.7732 2.15574Z" fill="#f3ad61" stroke-width="1"></path>
  <path d="M11 21.0533c0 -0.7544 0.3731 -1.4553 0.9875 -1.8549 2.455 -1.5979 5.57 -1.5979 8.025 0 0.6144 0.3996 0.9875 1.1005 0.9875 1.8549v0.74C21 24.6687 18.7612 27 16 27s-5 -2.3313 -5 -5.2067v-0.74Z" fill="#f3ad61" stroke-width="1"></path>
  <path d="M11 15.9687c0 -0.5522 0.4477 -0.9999 1 -0.9999s1 0.4477 1 1v1c0 0.5522 -0.4477 1 -1 1s-1 -0.4478 -1 -1v-1.0001Z" fill="#402a32" stroke-width="1"></path>
  <path d="M19 15.9687c0 -0.5522 0.4477 -0.9999 1 -0.9999s1 0.4477 1 1v1c0 0.5522 -0.4477 1 -1 1s-1 -0.4478 -1 -1v-1.0001Z" fill="#402a32" stroke-width="1"></path>
  <path d="m15.5256 20.8194 -1.0138 -0.8337c-0.1643 -0.1357 -0.26 -0.3375 -0.26 -0.5507 0 -0.3937 0.3194 -0.7131 0.7132 -0.7131h2.0737c0.3938 0 0.7131 0.3194 0.7131 0.7131 0 0.2132 -0.0956 0.415 -0.26 0.5507l-1.0131 0.8337c-0.2769 0.2275 -0.6769 0.2275 -0.9531 0Z" fill="#402a32" stroke-width="1"></path>
  <path d="M16 22c0.0608 0 0.1202 0.0111 0.1755 0.0319 0.0686 0.0256 0.1288 0.0652 0.1781 0.1146 0.0496 0.0495 0.0893 0.11 0.1149 0.1788 0.0077 0.0207 0.0141 0.0419 0.0191 0.0635 0.0843 0.3369 0.196 0.7455 0.427 1.0733 0.2124 0.3015 0.5263 0.538 1.0854 0.538 0.6543 0 1 -0.5344 1 -1 0 -0.2761 0.2239 -0.5 0.5 -0.5s0.5 0.2239 0.5 0.5c0 0.8677 -0.6543 2 -2 2 -0.9253 0 -1.5281 -0.4301 -1.9029 -0.962 -0.0342 -0.0486 -0.0666 -0.0981 -0.0971 -0.148 -0.0305 0.0499 -0.0629 0.0994 -0.0971 0.148 -0.3748 0.5319 -0.9776 0.962 -1.9029 0.962 -1.3457 0 -2 -1.1323 -2 -2 0 -0.2761 0.2239 -0.5 0.5 -0.5s0.5 0.2239 0.5 0.5c0 0.4656 0.3457 1 1 1 0.5591 0 0.873 -0.2365 1.0854 -0.538 0.231 -0.3278 0.3427 -0.7364 0.427 -1.0733 0.0051 -0.0219 0.0115 -0.0433 0.0194 -0.0642 0.0256 -0.0685 0.0652 -0.1287 0.1146 -0.1781 0.0493 -0.0494 0.1095 -0.089 0.1781 -0.1146 0.0553 -0.0208 0.1147 -0.0319 0.1755 -0.0319Z" fill="#402a32" stroke-width="1"></path>
</svg>